<svg width="116" height="82" viewBox="0 0 116 82" fill="none" xmlns="http://www.w3.org/2000/svg">
<path d="M110.2 52.3125H98.6V63.9375H102.66C103.621 63.9375 104.4 64.5914 104.4 65.3906V68.2969C104.4 69.0961 103.621 69.75 102.66 69.75H13.34C12.3794 69.75 11.6 69.0961 11.6 68.2969V65.3906C11.6 64.5914 12.3794 63.9375 13.34 63.9375H17.4V52.3125H5.8C2.59187 52.3125 0 54.91 0 58.125V75.5625C0 78.7775 2.59187 81.375 5.8 81.375H110.2C113.408 81.375 116 78.7775 116 75.5625V58.125C116 54.91 113.408 52.3125 110.2 52.3125ZM92.8 63.9375V5.86699C92.8 2.61563 90.1719 0 86.9456 0H29.0725C25.8281 0 23.2 2.63379 23.2 5.86699V63.9375H92.8ZM38.28 30.8789L42.9019 26.2834C43.6631 25.5205 44.8956 25.5205 45.6569 26.3016L53.1425 33.8578L70.3975 16.7109C71.1588 15.948 72.3913 15.948 73.1525 16.7291L77.7381 21.3609C78.4994 22.1238 78.4994 23.359 77.72 24.1219L54.4656 47.2266C53.7044 47.9895 52.4719 47.9895 51.7106 47.2084L38.28 33.6398C37.5006 32.877 37.5187 31.6418 38.28 30.8789Z" fill="black"/>
</svg>
